<mxfile host="Electron" modified="2023-10-05T23:54:08.095Z" agent="Mozilla/5.0 (Windows NT 10.0; Win64; x64) AppleWebKit/537.36 (KHTML, like Gecko) draw.io/21.6.8 Chrome/114.0.5735.289 Electron/25.5.0 Safari/537.36" etag="mK3Adx_CL0XnxrrNQzwj" version="21.6.8" type="device">
  <diagram name="Page-1" id="9WOfC1zzAT8NTr7R9URO">
    <mxGraphModel dx="926" dy="571" grid="1" gridSize="10" guides="1" tooltips="1" connect="1" arrows="1" fold="1" page="1" pageScale="1" pageWidth="850" pageHeight="1100" background="none" math="0" shadow="0">
      <root>
        <mxCell id="0" />
        <mxCell id="1" parent="0" />
        <mxCell id="ivQCET_rTq8O-tDMfoHd-78" value="" style="rounded=0;whiteSpace=wrap;html=1;strokeColor=#E07A5F;fillColor=none;strokeWidth=3;labelBackgroundColor=none;fontColor=#393C56;" parent="1" vertex="1">
          <mxGeometry x="144" y="250" width="634" height="493" as="geometry" />
        </mxCell>
        <mxCell id="H8CcC1CArOKnpSWM4Kvo-43" style="rounded=0;orthogonalLoop=1;jettySize=auto;html=1;exitX=0.5;exitY=0.5;exitDx=0;exitDy=0;exitPerimeter=0;entryX=0;entryY=0.5;entryDx=0;entryDy=0;labelBackgroundColor=none;strokeColor=#E07A5F;fontColor=default;" edge="1" parent="1" source="ivQCET_rTq8O-tDMfoHd-2" target="ivQCET_rTq8O-tDMfoHd-5">
          <mxGeometry relative="1" as="geometry" />
        </mxCell>
        <mxCell id="H8CcC1CArOKnpSWM4Kvo-44" style="rounded=0;orthogonalLoop=1;jettySize=auto;html=1;exitX=0.5;exitY=0.5;exitDx=0;exitDy=0;exitPerimeter=0;entryX=0;entryY=1;entryDx=0;entryDy=0;dashed=1;labelBackgroundColor=none;strokeColor=#E07A5F;fontColor=default;" edge="1" parent="1" source="ivQCET_rTq8O-tDMfoHd-2" target="ivQCET_rTq8O-tDMfoHd-10">
          <mxGeometry relative="1" as="geometry" />
        </mxCell>
        <mxCell id="ivQCET_rTq8O-tDMfoHd-2" value="Usuario" style="shape=umlActor;verticalLabelPosition=bottom;verticalAlign=top;html=1;outlineConnect=0;fontColor=#393C56;labelBackgroundColor=none;fillColor=#F2CC8F;strokeColor=#E07A5F;" parent="1" vertex="1">
          <mxGeometry x="80" y="440" width="30" height="60" as="geometry" />
        </mxCell>
        <mxCell id="H8CcC1CArOKnpSWM4Kvo-8" style="rounded=0;orthogonalLoop=1;jettySize=auto;html=1;exitX=0.291;exitY=1;exitDx=0;exitDy=0;entryX=0.5;entryY=0;entryDx=0;entryDy=0;exitPerimeter=0;labelBackgroundColor=none;strokeColor=#E07A5F;fontColor=default;" edge="1" parent="1" source="ivQCET_rTq8O-tDMfoHd-5" target="ivQCET_rTq8O-tDMfoHd-33">
          <mxGeometry relative="1" as="geometry" />
        </mxCell>
        <mxCell id="H8CcC1CArOKnpSWM4Kvo-32" value="include" style="edgeLabel;html=1;align=center;verticalAlign=middle;resizable=0;points=[];labelBackgroundColor=none;fontColor=#393C56;" vertex="1" connectable="0" parent="H8CcC1CArOKnpSWM4Kvo-8">
          <mxGeometry x="-0.1175" y="1" relative="1" as="geometry">
            <mxPoint y="1" as="offset" />
          </mxGeometry>
        </mxCell>
        <mxCell id="H8CcC1CArOKnpSWM4Kvo-9" style="rounded=0;orthogonalLoop=1;jettySize=auto;html=1;exitX=0.5;exitY=1;exitDx=0;exitDy=0;entryX=0.391;entryY=0.04;entryDx=0;entryDy=0;entryPerimeter=0;labelBackgroundColor=none;strokeColor=#E07A5F;fontColor=default;" edge="1" parent="1" source="ivQCET_rTq8O-tDMfoHd-5" target="H8CcC1CArOKnpSWM4Kvo-3">
          <mxGeometry relative="1" as="geometry" />
        </mxCell>
        <mxCell id="H8CcC1CArOKnpSWM4Kvo-33" value="include" style="edgeLabel;html=1;align=center;verticalAlign=middle;resizable=0;points=[];labelBackgroundColor=none;fontColor=#393C56;" vertex="1" connectable="0" parent="H8CcC1CArOKnpSWM4Kvo-9">
          <mxGeometry x="-0.0792" y="3" relative="1" as="geometry">
            <mxPoint as="offset" />
          </mxGeometry>
        </mxCell>
        <mxCell id="H8CcC1CArOKnpSWM4Kvo-10" style="rounded=0;orthogonalLoop=1;jettySize=auto;html=1;exitX=1;exitY=0.5;exitDx=0;exitDy=0;entryX=0;entryY=0.5;entryDx=0;entryDy=0;labelBackgroundColor=none;strokeColor=#E07A5F;fontColor=default;" edge="1" parent="1" source="ivQCET_rTq8O-tDMfoHd-5" target="ivQCET_rTq8O-tDMfoHd-11">
          <mxGeometry relative="1" as="geometry" />
        </mxCell>
        <mxCell id="H8CcC1CArOKnpSWM4Kvo-35" value="include" style="edgeLabel;html=1;align=center;verticalAlign=middle;resizable=0;points=[];labelBackgroundColor=none;fontColor=#393C56;" vertex="1" connectable="0" parent="H8CcC1CArOKnpSWM4Kvo-10">
          <mxGeometry x="0.2573" y="3" relative="1" as="geometry">
            <mxPoint as="offset" />
          </mxGeometry>
        </mxCell>
        <mxCell id="H8CcC1CArOKnpSWM4Kvo-11" style="rounded=0;orthogonalLoop=1;jettySize=auto;html=1;entryX=0;entryY=0.64;entryDx=0;entryDy=0;entryPerimeter=0;exitX=1;exitY=0.5;exitDx=0;exitDy=0;labelBackgroundColor=none;strokeColor=#E07A5F;fontColor=default;" edge="1" parent="1" source="ivQCET_rTq8O-tDMfoHd-5" target="ivQCET_rTq8O-tDMfoHd-20">
          <mxGeometry relative="1" as="geometry" />
        </mxCell>
        <mxCell id="H8CcC1CArOKnpSWM4Kvo-37" value="include" style="edgeLabel;html=1;align=center;verticalAlign=middle;resizable=0;points=[];labelBackgroundColor=none;fontColor=#393C56;" vertex="1" connectable="0" parent="H8CcC1CArOKnpSWM4Kvo-11">
          <mxGeometry x="-0.0674" y="-3" relative="1" as="geometry">
            <mxPoint as="offset" />
          </mxGeometry>
        </mxCell>
        <mxCell id="H8CcC1CArOKnpSWM4Kvo-12" style="rounded=0;orthogonalLoop=1;jettySize=auto;html=1;entryX=0;entryY=0.5;entryDx=0;entryDy=0;exitX=1;exitY=0.5;exitDx=0;exitDy=0;labelBackgroundColor=none;strokeColor=#E07A5F;fontColor=default;" edge="1" parent="1" source="ivQCET_rTq8O-tDMfoHd-5" target="ivQCET_rTq8O-tDMfoHd-29">
          <mxGeometry relative="1" as="geometry" />
        </mxCell>
        <mxCell id="H8CcC1CArOKnpSWM4Kvo-36" value="include" style="edgeLabel;html=1;align=center;verticalAlign=middle;resizable=0;points=[];labelBackgroundColor=none;fontColor=#393C56;" vertex="1" connectable="0" parent="H8CcC1CArOKnpSWM4Kvo-12">
          <mxGeometry x="0.1405" y="3" relative="1" as="geometry">
            <mxPoint as="offset" />
          </mxGeometry>
        </mxCell>
        <mxCell id="H8CcC1CArOKnpSWM4Kvo-13" style="rounded=0;orthogonalLoop=1;jettySize=auto;html=1;entryX=0.027;entryY=0.64;entryDx=0;entryDy=0;entryPerimeter=0;exitX=1;exitY=0.5;exitDx=0;exitDy=0;labelBackgroundColor=none;strokeColor=#E07A5F;fontColor=default;" edge="1" parent="1" source="ivQCET_rTq8O-tDMfoHd-5" target="ivQCET_rTq8O-tDMfoHd-23">
          <mxGeometry relative="1" as="geometry" />
        </mxCell>
        <mxCell id="H8CcC1CArOKnpSWM4Kvo-34" value="include" style="edgeLabel;html=1;align=center;verticalAlign=middle;resizable=0;points=[];labelBackgroundColor=none;fontColor=#393C56;" vertex="1" connectable="0" parent="H8CcC1CArOKnpSWM4Kvo-13">
          <mxGeometry x="-0.1466" y="-1" relative="1" as="geometry">
            <mxPoint as="offset" />
          </mxGeometry>
        </mxCell>
        <mxCell id="H8CcC1CArOKnpSWM4Kvo-17" style="rounded=0;orthogonalLoop=1;jettySize=auto;html=1;exitX=0.5;exitY=0;exitDx=0;exitDy=0;entryX=0.5;entryY=1;entryDx=0;entryDy=0;labelBackgroundColor=none;strokeColor=#E07A5F;fontColor=default;" edge="1" parent="1" source="ivQCET_rTq8O-tDMfoHd-5" target="H8CcC1CArOKnpSWM4Kvo-6">
          <mxGeometry relative="1" as="geometry" />
        </mxCell>
        <mxCell id="H8CcC1CArOKnpSWM4Kvo-31" value="include" style="edgeLabel;html=1;align=center;verticalAlign=middle;resizable=0;points=[];labelBackgroundColor=none;fontColor=#393C56;" vertex="1" connectable="0" parent="H8CcC1CArOKnpSWM4Kvo-17">
          <mxGeometry x="-0.1702" y="-1" relative="1" as="geometry">
            <mxPoint as="offset" />
          </mxGeometry>
        </mxCell>
        <mxCell id="H8CcC1CArOKnpSWM4Kvo-18" style="rounded=0;orthogonalLoop=1;jettySize=auto;html=1;exitX=1;exitY=0;exitDx=0;exitDy=0;entryX=0;entryY=1;entryDx=0;entryDy=0;labelBackgroundColor=none;strokeColor=#E07A5F;fontColor=default;" edge="1" parent="1" source="ivQCET_rTq8O-tDMfoHd-5" target="H8CcC1CArOKnpSWM4Kvo-2">
          <mxGeometry relative="1" as="geometry" />
        </mxCell>
        <mxCell id="H8CcC1CArOKnpSWM4Kvo-38" value="include" style="edgeLabel;html=1;align=center;verticalAlign=middle;resizable=0;points=[];labelBackgroundColor=none;fontColor=#393C56;" vertex="1" connectable="0" parent="H8CcC1CArOKnpSWM4Kvo-18">
          <mxGeometry x="-0.2125" y="-2" relative="1" as="geometry">
            <mxPoint as="offset" />
          </mxGeometry>
        </mxCell>
        <mxCell id="ivQCET_rTq8O-tDMfoHd-5" value="Iniciar sesiÃ³n" style="ellipse;whiteSpace=wrap;html=1;fontColor=#393C56;labelBackgroundColor=none;fillColor=#F2CC8F;strokeColor=#E07A5F;" parent="1" vertex="1">
          <mxGeometry x="240" y="458" width="110" height="50" as="geometry" />
        </mxCell>
        <mxCell id="H8CcC1CArOKnpSWM4Kvo-16" style="rounded=0;orthogonalLoop=1;jettySize=auto;html=1;exitX=0.5;exitY=1;exitDx=0;exitDy=0;entryX=0;entryY=0;entryDx=0;entryDy=0;dashed=1;labelBackgroundColor=none;strokeColor=#E07A5F;fontColor=default;" edge="1" parent="1" source="ivQCET_rTq8O-tDMfoHd-10" target="ivQCET_rTq8O-tDMfoHd-5">
          <mxGeometry relative="1" as="geometry" />
        </mxCell>
        <mxCell id="H8CcC1CArOKnpSWM4Kvo-29" value="extend" style="edgeLabel;html=1;align=center;verticalAlign=middle;resizable=0;points=[];labelBackgroundColor=none;fontColor=#393C56;" vertex="1" connectable="0" parent="H8CcC1CArOKnpSWM4Kvo-16">
          <mxGeometry x="-0.0681" y="4" relative="1" as="geometry">
            <mxPoint as="offset" />
          </mxGeometry>
        </mxCell>
        <mxCell id="ivQCET_rTq8O-tDMfoHd-10" value="Registrar usuario" style="ellipse;whiteSpace=wrap;html=1;fontColor=#393C56;labelBackgroundColor=none;fillColor=#F2CC8F;strokeColor=#E07A5F;" parent="1" vertex="1">
          <mxGeometry x="160" y="340" width="110" height="50" as="geometry" />
        </mxCell>
        <mxCell id="H8CcC1CArOKnpSWM4Kvo-25" style="rounded=0;orthogonalLoop=1;jettySize=auto;html=1;exitX=1;exitY=0.5;exitDx=0;exitDy=0;entryX=0;entryY=0.5;entryDx=0;entryDy=0;labelBackgroundColor=none;strokeColor=#E07A5F;fontColor=default;" edge="1" parent="1" source="ivQCET_rTq8O-tDMfoHd-11" target="H8CcC1CArOKnpSWM4Kvo-19">
          <mxGeometry relative="1" as="geometry" />
        </mxCell>
        <mxCell id="H8CcC1CArOKnpSWM4Kvo-40" value="include" style="edgeLabel;html=1;align=center;verticalAlign=middle;resizable=0;points=[];labelBackgroundColor=none;fontColor=#393C56;" vertex="1" connectable="0" parent="H8CcC1CArOKnpSWM4Kvo-25">
          <mxGeometry x="-0.0856" relative="1" as="geometry">
            <mxPoint as="offset" />
          </mxGeometry>
        </mxCell>
        <mxCell id="ivQCET_rTq8O-tDMfoHd-11" value="Gestionar cuentas" style="ellipse;whiteSpace=wrap;html=1;fontColor=#393C56;labelBackgroundColor=none;fillColor=#F2CC8F;strokeColor=#E07A5F;" parent="1" vertex="1">
          <mxGeometry x="471" y="545" width="110" height="50" as="geometry" />
        </mxCell>
        <mxCell id="H8CcC1CArOKnpSWM4Kvo-45" style="edgeStyle=orthogonalEdgeStyle;rounded=0;orthogonalLoop=1;jettySize=auto;html=1;exitX=1;exitY=0.5;exitDx=0;exitDy=0;entryX=0;entryY=0.5;entryDx=0;entryDy=0;strokeColor=#E07A5F;fontColor=default;fillColor=#F2CC8F;dashed=1;labelBackgroundColor=none;" edge="1" parent="1" source="ivQCET_rTq8O-tDMfoHd-20" target="ivQCET_rTq8O-tDMfoHd-54">
          <mxGeometry relative="1" as="geometry" />
        </mxCell>
        <mxCell id="H8CcC1CArOKnpSWM4Kvo-47" value="extend" style="edgeLabel;html=1;align=center;verticalAlign=middle;resizable=0;points=[];fontColor=#393C56;labelBackgroundColor=none;" vertex="1" connectable="0" parent="H8CcC1CArOKnpSWM4Kvo-45">
          <mxGeometry x="-0.2079" y="-1" relative="1" as="geometry">
            <mxPoint as="offset" />
          </mxGeometry>
        </mxCell>
        <mxCell id="ivQCET_rTq8O-tDMfoHd-20" value="Gestionar meta" style="ellipse;whiteSpace=wrap;html=1;fontColor=#393C56;labelBackgroundColor=none;fillColor=#F2CC8F;strokeColor=#E07A5F;" parent="1" vertex="1">
          <mxGeometry x="466" y="360" width="110" height="50" as="geometry" />
        </mxCell>
        <mxCell id="ivQCET_rTq8O-tDMfoHd-23" value="Gestionar agenda" style="ellipse;whiteSpace=wrap;html=1;fontColor=#393C56;labelBackgroundColor=none;fillColor=#F2CC8F;strokeColor=#E07A5F;" parent="1" vertex="1">
          <mxGeometry x="471" y="630" width="110" height="50" as="geometry" />
        </mxCell>
        <mxCell id="H8CcC1CArOKnpSWM4Kvo-27" style="rounded=0;orthogonalLoop=1;jettySize=auto;html=1;exitX=1;exitY=0.5;exitDx=0;exitDy=0;entryX=0;entryY=0.5;entryDx=0;entryDy=0;labelBackgroundColor=none;strokeColor=#E07A5F;fontColor=default;" edge="1" parent="1" source="ivQCET_rTq8O-tDMfoHd-29" target="H8CcC1CArOKnpSWM4Kvo-20">
          <mxGeometry relative="1" as="geometry" />
        </mxCell>
        <mxCell id="H8CcC1CArOKnpSWM4Kvo-39" value="include" style="edgeLabel;html=1;align=center;verticalAlign=middle;resizable=0;points=[];labelBackgroundColor=none;fontColor=#393C56;" vertex="1" connectable="0" parent="H8CcC1CArOKnpSWM4Kvo-27">
          <mxGeometry x="-0.1629" y="-3" relative="1" as="geometry">
            <mxPoint as="offset" />
          </mxGeometry>
        </mxCell>
        <mxCell id="ivQCET_rTq8O-tDMfoHd-29" value="Gestonar transacciones&lt;p class=&quot;MsoNormal&quot;&gt;&lt;span style=&quot;font-size: 9pt; line-height: 107%; font-family: Helvetica, sans-serif; background-image: initial; background-position: initial; background-size: initial; background-repeat: initial; background-attachment: initial; background-origin: initial; background-clip: initial;&quot;&gt;&lt;/span&gt;&lt;/p&gt;" style="ellipse;whiteSpace=wrap;html=1;fontColor=#393C56;labelBackgroundColor=none;fillColor=#F2CC8F;strokeColor=#E07A5F;" parent="1" vertex="1">
          <mxGeometry x="471" y="458" width="110" height="50" as="geometry" />
        </mxCell>
        <mxCell id="ivQCET_rTq8O-tDMfoHd-33" value="Generar reporte" style="ellipse;whiteSpace=wrap;html=1;fontColor=#393C56;labelBackgroundColor=none;fillColor=#F2CC8F;strokeColor=#E07A5F;" parent="1" vertex="1">
          <mxGeometry x="160" y="620" width="110" height="50" as="geometry" />
        </mxCell>
        <mxCell id="H8CcC1CArOKnpSWM4Kvo-30" style="rounded=0;orthogonalLoop=1;jettySize=auto;html=1;exitX=0.5;exitY=1;exitDx=0;exitDy=0;entryX=0.5;entryY=0;entryDx=0;entryDy=0;labelBackgroundColor=none;strokeColor=#E07A5F;fontColor=default;" edge="1" parent="1" source="ivQCET_rTq8O-tDMfoHd-54" target="H8CcC1CArOKnpSWM4Kvo-20">
          <mxGeometry relative="1" as="geometry" />
        </mxCell>
        <mxCell id="H8CcC1CArOKnpSWM4Kvo-42" value="include" style="edgeLabel;html=1;align=center;verticalAlign=middle;resizable=0;points=[];labelBackgroundColor=none;fontColor=#393C56;" vertex="1" connectable="0" parent="H8CcC1CArOKnpSWM4Kvo-30">
          <mxGeometry y="3" relative="1" as="geometry">
            <mxPoint as="offset" />
          </mxGeometry>
        </mxCell>
        <mxCell id="ivQCET_rTq8O-tDMfoHd-54" value="Completar meta" style="ellipse;whiteSpace=wrap;html=1;fontColor=#393C56;labelBackgroundColor=none;fillColor=#F2CC8F;strokeColor=#E07A5F;" parent="1" vertex="1">
          <mxGeometry x="656" y="360" width="110" height="50" as="geometry" />
        </mxCell>
        <mxCell id="ivQCET_rTq8O-tDMfoHd-80" value="&lt;p class=&quot;MsoNormal&quot;&gt;Sistema de gestiÃ³n de&lt;br/&gt;finanzas personales &quot;Accountly&quot;&lt;/p&gt;" style="text;html=1;align=center;verticalAlign=middle;whiteSpace=wrap;rounded=0;fillColor=#F2CC8F;strokeColor=#E07A5F;fontColor=#393C56;labelBackgroundColor=none;" parent="1" vertex="1">
          <mxGeometry x="370" y="190" width="200" height="30" as="geometry" />
        </mxCell>
        <mxCell id="H8CcC1CArOKnpSWM4Kvo-2" value="Cerrar sesiÃ³n" style="ellipse;whiteSpace=wrap;html=1;fontColor=#393C56;labelBackgroundColor=none;fillColor=#F2CC8F;strokeColor=#E07A5F;" vertex="1" parent="1">
          <mxGeometry x="390" y="280" width="110" height="50" as="geometry" />
        </mxCell>
        <mxCell id="H8CcC1CArOKnpSWM4Kvo-3" value="Consultar divisas" style="ellipse;whiteSpace=wrap;html=1;fontColor=#393C56;labelBackgroundColor=none;fillColor=#F2CC8F;strokeColor=#E07A5F;" vertex="1" parent="1">
          <mxGeometry x="300" y="660" width="110" height="50" as="geometry" />
        </mxCell>
        <mxCell id="H8CcC1CArOKnpSWM4Kvo-6" value="Editar usario" style="ellipse;whiteSpace=wrap;html=1;fontColor=#393C56;labelBackgroundColor=none;fillColor=#F2CC8F;strokeColor=#E07A5F;" vertex="1" parent="1">
          <mxGeometry x="260" y="280" width="110" height="50" as="geometry" />
        </mxCell>
        <mxCell id="H8CcC1CArOKnpSWM4Kvo-19" value="Seleccionar cuenta" style="ellipse;whiteSpace=wrap;html=1;fontColor=#393C56;labelBackgroundColor=none;fillColor=#F2CC8F;strokeColor=#E07A5F;" vertex="1" parent="1">
          <mxGeometry x="640" y="540" width="110" height="50" as="geometry" />
        </mxCell>
        <mxCell id="H8CcC1CArOKnpSWM4Kvo-26" style="rounded=0;orthogonalLoop=1;jettySize=auto;html=1;exitX=0.5;exitY=1;exitDx=0;exitDy=0;entryX=0.5;entryY=0;entryDx=0;entryDy=0;labelBackgroundColor=none;strokeColor=#E07A5F;fontColor=default;" edge="1" parent="1" source="H8CcC1CArOKnpSWM4Kvo-20" target="H8CcC1CArOKnpSWM4Kvo-19">
          <mxGeometry relative="1" as="geometry" />
        </mxCell>
        <mxCell id="H8CcC1CArOKnpSWM4Kvo-41" value="include" style="edgeLabel;html=1;align=center;verticalAlign=middle;resizable=0;points=[];labelBackgroundColor=none;fontColor=#393C56;" vertex="1" connectable="0" parent="H8CcC1CArOKnpSWM4Kvo-26">
          <mxGeometry x="-0.0842" relative="1" as="geometry">
            <mxPoint as="offset" />
          </mxGeometry>
        </mxCell>
        <mxCell id="H8CcC1CArOKnpSWM4Kvo-20" value="Registrar transaccion" style="ellipse;whiteSpace=wrap;html=1;fontColor=#393C56;labelBackgroundColor=none;fillColor=#F2CC8F;strokeColor=#E07A5F;" vertex="1" parent="1">
          <mxGeometry x="656" y="440" width="110" height="50" as="geometry" />
        </mxCell>
      </root>
    </mxGraphModel>
  </diagram>
</mxfile>
